Coordinates
version=1
nRows=8
nColumns=34
inDegrees=yes

Units are S.I. units (second, meters, Newtons, ...)
If the header above contains a line with 'inDegrees', this indicates whether rotational values are in degrees (yes) or radians (no).

endheader
time	pelvis_tilt	pelvis_list	pelvis_rotation	pelvis_tx	pelvis_ty	pelvis_tz	hip_flexion_r	hip_adduction_r	hip_rotation_r	knee_angle_r	ankle_angle_r	subtalar_angle_r	mtp_angle_r	hip_flexion_l	hip_adduction_l	hip_rotation_l	knee_angle_l	ankle_angle_l	subtalar_angle_l	mtp_angle_l	lumbar_extension	lumbar_bending	lumbar_rotation	arm_flex_r	arm_add_r	arm_rot_r	elbow_flex_r	pro_sup_r	arm_flex_l	arm_add_l	arm_rot_l	elbow_flex_l	pro_sup_l
      0.00000000	     -1.43577918	     -1.89480640	     -2.99912399	      1.53141153	      0.85494459	     -0.09512236	      0.59120823	     -2.40181337	     -4.13554213	      7.13357398	      4.19592120	    -11.35435001	      0.00000000	     -1.36243946	     -6.51238092	     -3.96440133	      4.81100847	     10.31897517	     -3.35649149	      0.00000000	     -5.98031510	      3.10619187	     -0.45769569	      7.39945121	     -9.90209412	     34.91428955	     83.41702446	     91.87448118	      5.40162330	     -5.23992473	     30.41880708	     66.32049795	     84.32735360
      0.01666670	     -2.77973333	     -1.75798427	     -2.87355864	      1.53307968	      0.85336301	     -0.09548517	      2.13349950	     -2.11651693	     -3.36737342	      7.27799347	      7.47151675	     -9.98991788	      0.00000000	      0.61563221	     -6.00473691	     -3.51298771	      4.87689854	     10.84846704	     -2.41575956	      0.00000000	     -3.75941563	      3.47417492	     -1.42000964	      7.13505819	     -9.60803338	     34.41197569	     82.58517445	     91.65512673	      3.90300269	     -5.43206179	     28.03558836	     66.78839839	     83.50984837
      0.03333330	     -2.81104811	     -1.12334781	     -2.86186252	      1.53259265	      0.85353057	     -0.09488538	      1.89951059	     -2.82591625	     -3.54912017	      6.46186751	      7.47772749	     -9.89119685	      0.00000000	      0.52076692	     -5.39772320	     -3.68232833	      4.54632432	     10.51070383	     -2.15510017	      0.00000000	     -3.66364978	      2.71087440	     -1.35958042	      7.31547613	     -9.40102890	     34.45939349	     82.29459930	     91.67039096	      4.13854015	     -6.00870157	     27.63845534	     66.59030864	     83.37352961
      0.05000000	     -2.59875357	     -0.80654352	     -2.72791319	      1.53237450	      0.85544442	     -0.09454792	      1.39900764	     -3.23809106	     -3.53858111	      5.90215493	      7.61709420	     -9.83190965	      0.00000000	     -0.19907571	     -5.04734043	     -3.54280573	      3.76583832	     10.17211165	     -1.95858419	      0.00000000	     -3.56447071	      2.16741592	     -1.18078773	      7.20384776	     -9.33164204	     34.69055657	     81.84835834	     91.71241349	      4.24347477	     -6.25497387	     27.51122717	     66.39287353	     83.32262210
      0.06666670	     -1.79756955	     -0.74639023	     -2.77277681	      1.53161391	      0.85756924	     -0.09467298	      0.29721144	     -3.32256503	     -3.54203143	      5.34762025	      7.50780717	     -9.71883536	      0.00000000	     -1.48964819	     -4.90339024	     -3.52944883	      2.96486051	      9.57043704	     -1.99585183	      0.00000000	     -4.49415136	      2.19826562	     -1.07246610	      7.83810915	     -9.28320876	     35.47278155	     81.43253130	     91.85784553	      4.65822204	     -6.21042027	     28.06409535	     66.00788507	     83.40511988
      0.08333330	     -1.61181549	     -0.67650573	     -2.63241346	      1.53139506	      0.85835613	     -0.09510578	     -0.03657396	     -3.35863691	     -3.45118024	      5.06739974	      7.51107089	     -9.82129904	      0.00000000	     -1.85462127	     -4.78293778	     -3.16910265	      2.56464922	      9.42883132	     -1.91891213	      0.00000000	     -4.64653303	      2.15524793	     -1.11382803	      7.89151815	     -9.35471246	     35.97696154	     81.73635393	     91.91680755	      4.70138718	     -6.11577912	     28.48238549	     65.94253105	     83.50809112
      0.10000000	     -1.10252244	     -0.73213609	     -2.52048732	      1.53101193	      0.85910051	     -0.09544254	     -0.68416237	     -3.29836293	     -3.45152179	      4.82828174	      7.13155992	    -10.12313165	      0.00000000	     -2.45595437	     -4.80135507	     -2.99676779	      2.37294713	      8.95590803	     -2.11879619	      0.00000000	     -5.22590738	      2.23813607	     -1.19993372	      8.36926083	     -9.65968696	     36.87170343	     82.58332031	     91.99885403	      5.14597562	     -6.14392848	     29.31589139	     65.68188372	     83.76786932
      0.11666670	     -1.08120078	     -0.72733507	     -2.51046310	      1.53106579	      0.85889956	     -0.09538766	     -0.67441523	     -3.28401027	     -3.44795042	      4.81976422	      7.13245252	    -10.12427964	      0.00000000	     -2.46246462	     -4.78765483	     -2.99317597	      2.37369464	      8.95619219	     -2.11950203	      0.00000000	     -5.21969607	      2.23802652	     -1.19676223	      8.37364682	     -9.65604895	     36.87581042	     82.58951992	     91.99906135	      5.14694365	     -6.13822506	     29.32086292	     65.68254381	     83.76940688
